<svg width="322" height="70" viewBox="0 0 322 70" fill="none" xmlns="http://www.w3.org/2000/svg">
<path fill-rule="evenodd" clip-rule="evenodd" d="M43.9382 43.0962L30.2569 50.9951L30.2569 69.4095L30.2577 69.4099L59.8875 52.3031L59.8875 18.0896L30.2577 0.982898L0.627931 18.0896L0.627934 52.3032L16.5756 61.5106L16.5756 27.2984L30.2569 19.3995L43.9382 27.2984L43.9382 43.0962Z" fill="#3A36FF"/>
<mask id="mask0_414_22" style="mask-type:alpha" maskUnits="userSpaceOnUse" x="0" y="0" width="60" height="70">
<path fill-rule="evenodd" clip-rule="evenodd" d="M43.9382 43.0962L30.2569 50.9951L30.2569 69.4095L30.2577 69.4099L59.8875 52.3031L59.8875 18.0896L30.2577 0.982898L0.627931 18.0896L0.627934 52.3032L16.5756 61.5106L16.5756 27.2984L30.2569 19.3995L43.9382 27.2984L43.9382 43.0962Z" fill="#3A36FF"/>
</mask>
<g mask="url(#mask0_414_22)">
<rect width="42.7098" height="16.0109" transform="matrix(0.866025 0.5 0.5 -0.866025 -17.3999 42.0354)" fill="#FFB800"/>
<rect x="41.6566" y="76.1316" width="25.4818" height="16.0418" transform="rotate(-150 41.6566 76.1316)" fill="#19E6F3"/>
<rect width="47.4198" height="13.9186" transform="matrix(0.866025 0.5 0.5 -0.866025 -17.3992 23.6622)" fill="#FF7979"/>
<rect x="59.7593" y="68.2123" width="41.6758" height="13.9186" transform="rotate(-150 59.7593 68.2123)" fill="#3998FF"/>
<rect width="38.3113" height="13.9186" transform="matrix(0.866025 0.5 0.5 -0.866025 -1.96973 16.6207)" fill="#D763FF"/>
<rect width="85.7143" height="21.1624" transform="matrix(0.866025 0.5 0.5 -0.866025 3.16187 3.64587)" fill="#3A36FF"/>
</g>
<path d="M100.079 34.7193C100.079 37.1115 99.5613 39.2393 98.5262 41.1025C97.514 42.9428 96.0418 44.3804 94.1096 45.4156C92.2004 46.4507 89.9461 46.9683 87.3468 46.9683H78.1341V22.5738H87.3468C89.9691 22.5738 92.2349 23.0798 94.1441 24.0919C96.0533 25.1041 97.514 26.5302 98.5262 28.3705C99.5613 30.2107 100.079 32.327 100.079 34.7193ZM86.8292 41.6891C89.1295 41.6891 90.9122 41.0795 92.1774 39.8604C93.4655 38.6412 94.1096 36.9275 94.1096 34.7193C94.1096 32.511 93.4655 30.7973 92.1774 29.5781C90.9122 28.359 89.1295 27.7494 86.8292 27.7494H84.0344V41.6891H86.8292ZM109.34 31.3378C110.076 30.1647 111.019 29.2331 112.169 28.543C113.342 27.8529 114.607 27.5079 115.965 27.5079V33.8221H114.274C112.71 33.8221 111.49 34.1557 110.616 34.8228C109.765 35.4898 109.34 36.617 109.34 38.2042V46.9683H103.44V27.7149H109.34V31.3378ZM136.721 36.824C136.721 37.3071 136.664 37.8361 136.549 38.4112H123.196C123.265 39.8604 123.633 40.907 124.3 41.5511C124.967 42.1722 125.818 42.4827 126.853 42.4827C127.727 42.4827 128.452 42.2642 129.027 41.8271C129.602 41.3901 129.981 40.8265 130.165 40.1364H136.411C136.158 41.4936 135.606 42.7127 134.755 43.7939C133.903 44.852 132.822 45.6916 131.511 46.3127C130.2 46.9108 128.739 47.2098 127.129 47.2098C125.243 47.2098 123.564 46.8187 122.091 46.0366C120.642 45.2315 119.504 44.0814 118.676 42.5862C117.847 41.091 117.433 39.3428 117.433 37.3416C117.433 35.3173 117.836 33.5691 118.641 32.0969C119.469 30.6017 120.619 29.4631 122.091 28.681C123.564 27.8759 125.243 27.4734 127.129 27.4734C129.038 27.4734 130.718 27.8644 132.167 28.6465C133.616 29.4286 134.732 30.5327 135.514 31.9589C136.319 33.3621 136.721 34.9838 136.721 36.824ZM130.752 35.9269C130.775 34.6617 130.43 33.7186 129.717 33.0976C129.027 32.4535 128.164 32.1314 127.129 32.1314C126.048 32.1314 125.151 32.4535 124.438 33.0976C123.725 33.7416 123.322 34.6847 123.23 35.9269H130.752ZM147.112 27.4734C148.584 27.4734 149.849 27.8069 150.907 28.474C151.966 29.1411 152.748 30.0497 153.254 31.1998V27.7149H159.119V46.9683H153.254V43.4833C152.748 44.6335 151.966 45.5421 150.907 46.2092C149.849 46.8763 148.584 47.2098 147.112 47.2098C145.525 47.2098 144.099 46.8187 142.833 46.0366C141.591 45.2315 140.602 44.0814 139.866 42.5862C139.153 41.091 138.796 39.3428 138.796 37.3416C138.796 35.3173 139.153 33.5691 139.866 32.0969C140.602 30.6017 141.591 29.4631 142.833 28.681C144.099 27.8759 145.525 27.4734 147.112 27.4734ZM149.01 32.649C147.744 32.649 146.721 33.063 145.939 33.8911C145.18 34.7193 144.8 35.8694 144.8 37.3416C144.8 38.8138 145.18 39.9639 145.939 40.792C146.721 41.6201 147.744 42.0342 149.01 42.0342C150.252 42.0342 151.264 41.6086 152.046 40.7575C152.851 39.9064 153.254 38.7678 153.254 37.3416C153.254 35.8924 152.851 34.7538 152.046 33.9257C151.264 33.0745 150.252 32.649 149.01 32.649ZM188.128 27.5079C190.498 27.5079 192.361 28.244 193.718 29.7161C195.075 31.1653 195.754 33.1896 195.754 35.7889V46.9683H189.888V36.479C189.888 35.2598 189.554 34.3167 188.887 33.6496C188.243 32.9595 187.358 32.6145 186.231 32.6145C185.057 32.6145 184.126 32.9825 183.436 33.7186C182.769 34.4317 182.435 35.4438 182.435 36.755V46.9683H176.535V36.479C176.535 35.2598 176.213 34.3167 175.569 33.6496C174.925 32.9595 174.039 32.6145 172.912 32.6145C171.739 32.6145 170.807 32.971 170.117 33.6841C169.427 34.3972 169.082 35.4208 169.082 36.755V46.9683H163.182V27.7149H169.082V30.9928C169.588 29.9117 170.359 29.0606 171.394 28.4395C172.452 27.8184 173.683 27.5079 175.086 27.5079C176.558 27.5079 177.858 27.8529 178.985 28.543C180.112 29.2101 180.963 30.1762 181.538 31.4413C182.205 30.2452 183.114 29.2906 184.264 28.5775C185.437 27.8644 186.725 27.5079 188.128 27.5079ZM222.488 22.5738V27.2663H212.482V32.6145H220.211V37.1H212.482V46.9683H206.582V22.5738H222.488ZM244.668 27.7149V46.9683H238.734V43.4833C238.182 44.6105 237.353 45.5076 236.249 46.1747C235.168 46.8417 233.903 47.1753 232.454 47.1753C230.246 47.1753 228.486 46.4392 227.175 44.967C225.887 43.4948 225.242 41.4706 225.242 38.8943V27.7149H231.108V38.1697C231.108 39.4808 231.442 40.5045 232.109 41.2406C232.799 41.9536 233.719 42.3102 234.869 42.3102C236.065 42.3102 237.008 41.9306 237.699 41.1715C238.389 40.4125 238.734 39.3313 238.734 37.9281V27.7149H244.668ZM259.638 41.8961V46.9683H256.981C254.727 46.9683 252.967 46.4162 251.702 45.3121C250.46 44.1849 249.839 42.3332 249.839 39.7569V32.6835H247.251V27.7149H249.839V22.9878H255.739V27.7149H259.604V32.6835H255.739V39.8604C255.739 40.6195 255.889 41.1485 256.188 41.4476C256.51 41.7466 257.039 41.8961 257.775 41.8961H259.638ZM282.104 27.7149V46.9683H276.169V43.4833C275.617 44.6105 274.789 45.5076 273.685 46.1747C272.604 46.8417 271.339 47.1753 269.89 47.1753C267.681 47.1753 265.922 46.4392 264.61 44.967C263.322 43.4948 262.678 41.4706 262.678 38.8943V27.7149H268.544V38.1697C268.544 39.4808 268.878 40.5045 269.545 41.2406C270.235 41.9536 271.155 42.3102 272.305 42.3102C273.501 42.3102 274.444 41.9306 275.134 41.1715C275.824 40.4125 276.169 39.3313 276.169 37.9281V27.7149H282.104ZM292.071 31.3378C292.807 30.1647 293.75 29.2331 294.9 28.543C296.073 27.8529 297.338 27.5079 298.696 27.5079V33.8221H297.005C295.441 33.8221 294.222 34.1557 293.347 34.8228C292.496 35.4898 292.071 36.617 292.071 38.2042V46.9683H286.171V27.7149H292.071V31.3378ZM319.452 36.824C319.452 37.3071 319.395 37.8361 319.28 38.4112H305.927C305.996 39.8604 306.364 40.907 307.031 41.5511C307.698 42.1722 308.549 42.4827 309.584 42.4827C310.458 42.4827 311.183 42.2642 311.758 41.8271C312.333 41.3901 312.712 40.8265 312.897 40.1364H319.142C318.889 41.4936 318.337 42.7127 317.486 43.7939C316.634 44.852 315.553 45.6916 314.242 46.3127C312.931 46.9108 311.47 47.2098 309.86 47.2098C307.974 47.2098 306.295 46.8187 304.823 46.0366C303.373 45.2315 302.235 44.0814 301.407 42.5862C300.578 41.091 300.164 39.3428 300.164 37.3416C300.164 35.3173 300.567 33.5691 301.372 32.0969C302.2 30.6017 303.35 29.4631 304.823 28.681C306.295 27.8759 307.974 27.4734 309.86 27.4734C311.769 27.4734 313.449 27.8644 314.898 28.6465C316.347 29.4286 317.463 30.5327 318.245 31.9589C319.05 33.3621 319.452 34.9838 319.452 36.824ZM313.483 35.9269C313.506 34.6617 313.161 33.7186 312.448 33.0976C311.758 32.4535 310.895 32.1314 309.86 32.1314C308.779 32.1314 307.882 32.4535 307.169 33.0976C306.456 33.7416 306.053 34.6847 305.961 35.9269H313.483Z" fill="black"/>
</svg>
